<svg xmlns="http://www.w3.org/2000/svg" xmlns:xlink="http://www.w3.org/1999/xlink" width="1123" zoomAndPan="magnify" viewBox="0 0 842.25 595.499986" height="794" preserveAspectRatio="xMidYMid meet" version="1.0"><defs><g/><clipPath id="4c46fd3a51"><path d="M 0.535156 0.953125 L 609.355469 0.953125 L 609.355469 261.121094 L 0.535156 261.121094 Z M 0.535156 0.953125 " clip-rule="nonzero"/></clipPath><clipPath id="c14bd04ded"><rect x="0" width="610" y="0" height="262"/></clipPath><clipPath id="4f8c3ea79d"><rect x="0" width="610" y="0" height="262"/></clipPath></defs><g transform="matrix(1, 0, 0, 1, 116, 159)"><g clip-path="url(#4f8c3ea79d)"><g clip-path="url(#4c46fd3a51)"><g><g clip-path="url(#c14bd04ded)"><g fill="#000000" fill-opacity="1"><g transform="translate(1.330363, 182.597943)"><g><path d="M 61.953125 2.171875 C 50.898438 2.171875 41.347656 -0.125 33.296875 -4.71875 C 25.242188 -9.3125 19.019531 -15.816406 14.625 -24.234375 C 10.238281 -32.648438 8.046875 -42.640625 8.046875 -54.203125 C 8.046875 -65.460938 10.160156 -75.296875 14.390625 -83.703125 C 18.628906 -92.117188 24.59375 -98.703125 32.28125 -103.453125 C 39.976562 -108.203125 48.882812 -110.578125 59 -110.578125 C 66.539062 -110.578125 73.226562 -109.128906 79.0625 -106.234375 C 84.894531 -103.347656 89.359375 -99.222656 92.453125 -93.859375 L 96.328125 -110.578125 L 102.84375 -110.578125 L 103.609375 -71.25 L 97.109375 -71.25 C 94.003906 -81.46875 89.378906 -89.285156 83.234375 -94.703125 C 77.097656 -100.128906 69.796875 -102.84375 61.328125 -102.84375 C 53.691406 -102.84375 47.03125 -100.828125 41.34375 -96.796875 C 35.664062 -92.765625 31.253906 -87.109375 28.109375 -79.828125 C 24.960938 -72.554688 23.390625 -64.015625 23.390625 -54.203125 C 23.390625 -44.296875 24.988281 -35.78125 28.1875 -28.65625 C 31.382812 -21.53125 35.976562 -16.054688 41.96875 -12.234375 C 47.957031 -8.410156 55.082031 -6.5 63.34375 -6.5 C 71.289062 -6.5 78.363281 -8.253906 84.5625 -11.765625 C 90.757812 -15.273438 95.613281 -20.335938 99.125 -26.953125 L 105.3125 -22.765625 C 96.4375 -6.140625 81.984375 2.171875 61.953125 2.171875 Z M 61.953125 2.171875 "/></g></g></g><g fill="#000000" fill-opacity="1"><g transform="translate(110.045357, 182.597943)"><g><path d="M -1.703125 0 L -1.703125 -5.109375 L 12.703125 -8.828125 L 54.515625 -109.96875 L 59.625 -109.96875 L 99.890625 -10.84375 C 100.515625 -9.289062 101.5 -8.410156 102.84375 -8.203125 L 116 -5.265625 L 116 0 L 68.609375 0 L 68.609375 -5.109375 L 85.1875 -8.046875 L 73.875 -36.390625 L 33.453125 -36.390625 L 24.78125 -11.15625 C 24.675781 -10.738281 24.546875 -10.320312 24.390625 -9.90625 C 24.234375 -9.5 24.15625 -9.140625 24.15625 -8.828125 C 24.15625 -8.210938 24.722656 -7.800781 25.859375 -7.59375 L 41.046875 -5.265625 L 41.046875 0 Z M 36.078125 -43.984375 L 71.25 -43.984375 L 52.8125 -89.671875 Z M 36.078125 -43.984375 "/></g></g></g><g fill="#000000" fill-opacity="1"><g transform="translate(213.339733, 182.597943)"><g><path d="M 64.890625 2.171875 C 51.367188 2.171875 40.8125 -1.3125 33.21875 -8.28125 C 25.632812 -15.25 21.84375 -24.929688 21.84375 -37.328125 L 21.84375 -99.125 L 7.28125 -102.984375 L 7.28125 -108.40625 L 51.421875 -108.40625 L 51.421875 -102.984375 L 38.25 -100.515625 C 37.21875 -100.304688 36.703125 -99.789062 36.703125 -98.96875 L 36.703125 -36.078125 C 36.703125 -26.691406 39.410156 -19.390625 44.828125 -14.171875 C 50.253906 -8.953125 57.820312 -6.34375 67.53125 -6.34375 C 77.226562 -6.34375 84.785156 -9 90.203125 -14.3125 C 95.628906 -19.632812 98.34375 -27.046875 98.34375 -36.546875 L 98.34375 -98.65625 C 98.34375 -99.476562 97.828125 -99.992188 96.796875 -100.203125 L 80.078125 -102.984375 L 80.078125 -108.40625 L 124.0625 -108.40625 L 124.0625 -102.984375 L 107.171875 -99.4375 L 107.171875 -38.5625 C 107.171875 -25.757812 103.453125 -15.769531 96.015625 -8.59375 C 88.585938 -1.414062 78.210938 2.171875 64.890625 2.171875 Z M 64.890625 2.171875 "/></g></g></g><g fill="#000000" fill-opacity="1"><g transform="translate(340.63853, 182.597943)"><g><path d="M 8.984375 0 L 8.984375 -5.265625 L 23.84375 -9.140625 L 23.84375 -99.4375 L 8.984375 -102.984375 L 8.984375 -108.40625 L 56.53125 -108.40625 C 68.507812 -108.40625 77.75 -106.1875 84.25 -101.75 C 90.757812 -97.3125 94.015625 -91.015625 94.015625 -82.859375 C 94.015625 -75.734375 91.664062 -69.796875 86.96875 -65.046875 C 82.269531 -60.296875 75.476562 -56.890625 66.59375 -54.828125 L 66.59375 -54.515625 C 78.988281 -52.453125 86.734375 -46.671875 89.828125 -37.171875 C 90.960938 -33.972656 92.273438 -29.972656 93.765625 -25.171875 C 95.265625 -20.367188 96.582031 -15.59375 97.71875 -10.84375 C 98.132812 -9.082031 99.320312 -8 101.28125 -7.59375 L 113.515625 -5.265625 L 113.515625 0 L 83.78125 0 C 82.34375 -6.09375 80.796875 -12.003906 79.140625 -17.734375 C 77.484375 -23.460938 76.085938 -28.03125 74.953125 -31.4375 C 72.578125 -38.457031 69.53125 -43.460938 65.8125 -46.453125 C 62.101562 -49.453125 56.890625 -51.160156 50.171875 -51.578125 L 38.5625 -52.34375 L 38.5625 -9.453125 C 38.5625 -8.515625 39.078125 -8 40.109375 -7.90625 L 54.046875 -5.265625 L 54.046875 0 Z M 50.328125 -58.703125 C 59.523438 -59.421875 66.546875 -61.710938 71.390625 -65.578125 C 76.242188 -69.453125 78.671875 -74.800781 78.671875 -81.625 C 78.671875 -94.632812 70.460938 -101.140625 54.046875 -101.140625 L 38.5625 -101.140625 L 38.5625 -57.765625 Z M 50.328125 -58.703125 "/></g></g></g><g fill="#000000" fill-opacity="1"><g transform="translate(452.915435, 182.597943)"><g><path d="M 9.140625 0 L 9.140625 -5.109375 L 24.15625 -8.984375 L 24.15625 -99.4375 L 9.140625 -103.296875 L 9.140625 -108.40625 L 53.59375 -108.40625 L 53.59375 -103.296875 L 40.421875 -100.828125 C 39.390625 -100.617188 38.875 -100.101562 38.875 -99.28125 L 38.875 -9.140625 C 38.875 -8.316406 39.390625 -7.800781 40.421875 -7.59375 L 53.59375 -5.109375 L 53.59375 0 Z M 9.140625 0 "/></g></g></g><g fill="#000000" fill-opacity="1"><g transform="translate(515.635633, 182.597943)"><g><path d="M 51.578125 2.171875 C 38.671875 2.171875 28.601562 -2.628906 21.375 -12.234375 L 15.953125 1.703125 L 10.53125 1.703125 L 9.453125 -34.078125 L 14.71875 -34.078125 C 22.875 -15.179688 34.4375 -5.734375 49.40625 -5.734375 C 55.707031 -5.734375 60.613281 -7.332031 64.125 -10.53125 C 67.632812 -13.726562 69.390625 -18.117188 69.390625 -23.703125 C 69.390625 -27.410156 68.535156 -30.6875 66.828125 -33.53125 C 65.117188 -36.375 62.300781 -39.132812 58.375 -41.8125 C 54.457031 -44.5 49.09375 -47.285156 42.28125 -50.171875 C 31.332031 -54.921875 23.484375 -59.800781 18.734375 -64.8125 C 13.984375 -69.820312 11.609375 -75.785156 11.609375 -82.703125 C 11.609375 -91.273438 14.367188 -98.0625 19.890625 -103.0625 C 25.421875 -108.070312 32.882812 -110.578125 42.28125 -110.578125 C 48.0625 -110.578125 53.171875 -109.414062 57.609375 -107.09375 C 62.046875 -104.769531 65.609375 -101.492188 68.296875 -97.265625 L 73.25 -110.109375 L 78.671875 -110.109375 L 79.453125 -75.578125 L 74.1875 -75.578125 C 70.46875 -85.078125 66.207031 -91.96875 61.40625 -96.25 C 56.601562 -100.539062 50.796875 -102.6875 43.984375 -102.6875 C 38.617188 -102.6875 34.332031 -101.210938 31.125 -98.265625 C 27.925781 -95.328125 26.328125 -91.378906 26.328125 -86.421875 C 26.328125 -83.328125 27.070312 -80.539062 28.5625 -78.0625 C 30.0625 -75.582031 32.75 -73.101562 36.625 -70.625 C 40.5 -68.144531 45.945312 -65.253906 52.96875 -61.953125 C 60.8125 -58.335938 67.003906 -54.828125 71.546875 -51.421875 C 76.085938 -48.015625 79.3125 -44.398438 81.21875 -40.578125 C 83.132812 -36.753906 84.09375 -32.265625 84.09375 -27.109375 C 84.09375 -18.222656 81.125 -11.117188 75.1875 -5.796875 C 69.25 -0.484375 61.378906 2.171875 51.578125 2.171875 Z M 51.578125 2.171875 "/></g></g></g></g></g></g></g></g></svg>